<?xml version="1.0" encoding="UTF-8" standalone="no"?><!DOCTYPE svg PUBLIC "-//W3C//DTD SVG 1.1//EN" "http://www.w3.org/Graphics/SVG/1.1/DTD/svg11.dtd"><svg width="100%" height="100%" viewBox="0 0 524 511" version="1.1" xmlns="http://www.w3.org/2000/svg" xmlns:xlink="http://www.w3.org/1999/xlink" xml:space="preserve" xmlns:serif="http://www.serif.com/" style="fill-rule:evenodd;clip-rule:evenodd;stroke-linecap:round;stroke-linejoin:bevel;stroke-miterlimit:1.5;"><g><path d="M358.606,107.031l50.48,50.875c13.931,14.039 13.843,36.747 -0.197,50.678l-195.899,194.381c-14.04,13.931 -36.747,13.842 -50.678,-0.197l-50.481,-50.875c-13.93,-14.039 -13.842,-36.747 0.197,-50.678l195.9,-194.381c14.039,-13.931 36.747,-13.842 50.678,0.197Z" style="fill:#fff;stroke:#000114;stroke-width:3px;"/><path d="M73.971,1.43l127.411,127.41l-71.902,71.902l-128.192,-128.192l72.683,-71.12Z" style="fill:none;stroke:#000;stroke-width:0.6px;stroke-linejoin:round;"/><path d="M166.808,163.498l40.811,40.811" style="fill:none;stroke:#000;stroke-width:4px;stroke-linejoin:round;"/><path d="M313.735,302.515l40.811,40.811" style="fill:none;stroke:#000;stroke-width:4px;stroke-linejoin:round;"/><path d="M391.336,309.985l130.332,128.942l-69.55,70.299l-130.332,-128.942l69.55,-70.299Z" style="fill:#fff;stroke:#000;stroke-width:3px;stroke-linejoin:round;"/><path d="M71.05,1.5l130.332,128.942l-69.551,70.3l-130.331,-128.943l69.55,-70.299Z" style="fill:#fff;stroke:#000;stroke-width:3px;"/></g></svg>